Genre:Action | Crime | Thriller
Language:English
IMDb:http://www.imdb.com/title/tt1135084/
Source:DvD5-R5/Audio.PPV Source
Subtitles:Romana

General
Complete name :Takers.2010.R5.H264.Feel-Free
Format : MPEG-4
Format profile : Base Media
Codec ID : isom
File size : 787 MiB
Duration : 1h 42mn
Overall bit rate : 1 070 Kbps
Video #2
Codec ID : avc1
Codec ID/Info : Advanced Video Coding
Duration : 1h 42mn
Bit rate mode : Variable
Bit rate : 904 Kbps
Width : 720 pixels
Height : 304 pixels
Display aspect ratio : 2.35:1
Frame rate mode : Constant
Frame rate : 29.970 fps
Original frame rate : 29.000 fps
Resolution : 24 bits
Colorimetry : 4:2:0
Scan type : Progressive
Bits/(Pixel*Frame) : 0.138
Stream size : 665 MiB (85%)
Audio #1
ID : 1
Format : AAC
Format/Info : Advanced Audio Codec
Format version : Version 4
Format profile : LC
Format settings, SBR : No
Codec ID : 40
Duration : 1h 42mn
Bit rate mode : Constant
Bit rate : 160 Kbps
Channel(s) : 2 channels
Channel positions : L R
Sampling rate : 48.0 KHz
Resolution : 16 bits
Stream size : 117 MiB (15%)


Plot
A group of bank robbers find their $20 million plan interrupted by a hard-boiled detective



================================== 
http://thepiratebay.org/user/hiest
==================================